<mxfile host="app.diagrams.net" agent="Mozilla/5.0 (Windows NT 10.0; Win64; x64; rv:137.0) Gecko/20100101 Firefox/137.0" version="26.3.0">
  <diagram name="PÃ¡gina-1" id="uerMNwfF0Bj-0GN5C-6Q">
    <mxGraphModel>
      <root>
        <mxCell id="0" />
        <mxCell id="1" parent="0" />
        <mxCell id="2" value="CUSTOMER" style="shape=table;startSize=84;container=1;collapsible=0;childLayout=tableLayout;fixedRows=1;rowLines=1;fontStyle=1;align=center;resizeLast=1;" vertex="1" parent="1">
          <mxGeometry x="144" y="8" width="116" height="84" as="geometry" />
        </mxCell>
        <mxCell id="3" value="ORDER" style="shape=table;startSize=84;container=1;collapsible=0;childLayout=tableLayout;fixedRows=1;rowLines=1;fontStyle=1;align=center;resizeLast=1;" vertex="1" parent="1">
          <mxGeometry x="13" y="195" width="100" height="84" as="geometry" />
        </mxCell>
        <mxCell id="4" value="LINE-ITEM" style="shape=table;startSize=84;container=1;collapsible=0;childLayout=tableLayout;fixedRows=1;rowLines=1;fontStyle=1;align=center;resizeLast=1;" vertex="1" parent="1">
          <mxGeometry x="8" y="382" width="111" height="84" as="geometry" />
        </mxCell>
        <mxCell id="5" value="DELIVERY-ADDRESS" style="shape=table;startSize=84;container=1;collapsible=0;childLayout=tableLayout;fixedRows=1;rowLines=1;fontStyle=1;align=center;resizeLast=1;" vertex="1" parent="1">
          <mxGeometry x="253" y="195" width="173" height="84" as="geometry" />
        </mxCell>
        <mxCell id="6" value="places" style="curved=1;startArrow=ERmandOne;startSize=10;;endArrow=ERzeroToMany;endSize=10;;exitX=0;exitY=0.97;entryX=0.5;entryY=0;" edge="1" parent="1" source="2" target="3">
          <mxGeometry relative="1" as="geometry">
            <Array as="points">
              <mxPoint x="63" y="144" />
            </Array>
          </mxGeometry>
        </mxCell>
        <mxCell id="7" value="contains" style="curved=1;startArrow=ERmandOne;startSize=10;;endArrow=ERoneToMany;endSize=10;;exitX=0.5;exitY=1;entryX=0.5;entryY=0;" edge="1" parent="1" source="3" target="4">
          <mxGeometry relative="1" as="geometry">
            <Array as="points" />
          </mxGeometry>
        </mxCell>
        <mxCell id="8" value="uses" style="curved=1;dashed=1;startArrow=ERoneToMany;startSize=10;;endArrow=ERoneToMany;endSize=10;;exitX=1;exitY=0.97;entryX=0.5;entryY=0;" edge="1" parent="1" source="2" target="5">
          <mxGeometry relative="1" as="geometry">
            <Array as="points">
              <mxPoint x="340" y="144" />
            </Array>
          </mxGeometry>
        </mxCell>
      </root>
    </mxGraphModel>
  </diagram>
</mxfile>
